<?xml version="1.0" encoding="utf-8"?>
<!-- Generator: Adobe Illustrator 27.5.0, SVG Export Plug-In . SVG Version: 6.00 Build 0)  -->
<svg version="1.1" xmlns="http://www.w3.org/2000/svg" xmlns:xlink="http://www.w3.org/1999/xlink" x="0px" y="0px"
	 viewBox="0 0 500 500" style="enable-background:new 0 0 500 500;" xml:space="preserve">
<g id="BACKGROUND">
	<rect style="fill:#B0EBFF;" width="500" height="500"/>
</g>
<g id="OBJECTS">
	<g>
		<path style="opacity:0.38;fill:#57A8EA;" d="M404.091,51.743c-24.417-9.462-22.855,112.605,20.631,109.411
			C468.207,157.96,473.995,78.832,404.091,51.743z"/>
		<g>
			<path style="opacity:0.38;fill:#57A8EA;" d="M277.565,43.335c-67.366-13.683-107.596,38.391-128.488,81.215
				c-20.893,42.824-41.609,84.694-62.974,109.739s-41.368,74.753,0,127.959s104.387,35.45,153.63,16.849
				c49.243-18.6,100.16,24.951,150.424,4.99c50.264-19.96,105.868-101.445,46.7-160.148
				C377.689,165.236,389.876,66.147,277.565,43.335z"/>
			<ellipse style="opacity:0.38;fill:#57A8EA;" cx="246.14" cy="454.71" rx="208.515" ry="4.183"/>
		</g>
		<g>
			<g>
				<g>
					<g>
						<path style="fill:#B0EBFF;" d="M352.518,333.955H338.57c-0.253,0-0.458-0.205-0.458-0.458v-2.281
							c0-0.253,0.205-0.458,0.458-0.458h13.948c0.253,0,0.458,0.205,0.458,0.458v2.281
							C352.976,333.75,352.771,333.955,352.518,333.955z"/>
						<path style="fill:#B0EBFF;" d="M343.97,339.33v-13.948c0-0.253,0.205-0.458,0.458-0.458h2.231
							c0.253,0,0.458,0.205,0.458,0.458v13.948c0,0.253-0.205,0.458-0.458,0.458h-2.231
							C344.175,339.788,343.97,339.583,343.97,339.33z"/>
					</g>
				</g>
				<g>
					<g>
						<path style="fill:#B0EBFF;" d="M407.388,267.026h-23.411c-0.425,0-0.77-0.344-0.77-0.77v-3.829c0-0.425,0.345-0.77,0.77-0.77
							h23.411c0.425,0,0.77,0.344,0.77,0.77v3.829C408.158,266.682,407.813,267.026,407.388,267.026z"/>
						<path style="fill:#B0EBFF;" d="M393.041,276.048v-23.412c0-0.425,0.344-0.77,0.77-0.77h3.745c0.425,0,0.769,0.344,0.769,0.77
							v23.412c0,0.425-0.345,0.77-0.769,0.77h-3.745C393.385,276.817,393.041,276.473,393.041,276.048z"/>
					</g>
				</g>
				<g>
					<g>
						<path style="fill:#B0EBFF;" d="M190.447,326.941h-17.595c-0.319,0-0.578-0.259-0.578-0.578v-2.878
							c0-0.319,0.259-0.578,0.578-0.578h17.595c0.319,0,0.578,0.259,0.578,0.578v2.878
							C191.025,326.682,190.766,326.941,190.447,326.941z"/>
						<path style="fill:#B0EBFF;" d="M179.664,333.721v-17.595c0-0.319,0.259-0.578,0.578-0.578h2.814
							c0.319,0,0.578,0.259,0.578,0.578v17.595c0,0.319-0.259,0.578-0.578,0.578h-2.814
							C179.923,334.299,179.664,334.041,179.664,333.721z"/>
					</g>
				</g>
				<g>
					<g>
						<path style="fill:#B0EBFF;" d="M125.722,277.924H102.31c-0.425,0-0.769-0.345-0.769-0.77v-3.829
							c0-0.425,0.344-0.77,0.769-0.77h23.412c0.425,0,0.769,0.345,0.769,0.77v3.829
							C126.491,277.579,126.146,277.924,125.722,277.924z"/>
						<path style="fill:#B0EBFF;" d="M111.374,286.945v-23.411c0-0.425,0.344-0.77,0.77-0.77h3.745c0.425,0,0.77,0.345,0.77,0.77
							v23.411c0,0.425-0.344,0.77-0.77,0.77h-3.745C111.718,287.715,111.374,287.371,111.374,286.945z"/>
					</g>
				</g>
				<g>
					<g>
						<path style="fill:#B0EBFF;" d="M299.431,131.574h-16.898c-0.307,0-0.555-0.249-0.555-0.555v-2.764
							c0-0.307,0.249-0.555,0.555-0.555h16.898c0.307,0,0.555,0.249,0.555,0.555v2.764
							C299.986,131.325,299.737,131.574,299.431,131.574z"/>
						<path style="fill:#B0EBFF;" d="M289.075,138.086v-16.898c0-0.307,0.249-0.555,0.555-0.555h2.703
							c0.307,0,0.555,0.249,0.555,0.555v16.898c0,0.307-0.249,0.555-0.555,0.555h-2.703
							C289.323,138.641,289.075,138.393,289.075,138.086z"/>
					</g>
				</g>
			</g>
		</g>
	</g>
	<g>
		<path style="fill:#491826;" d="M230.012,120.058c0,0-4.511-8.911-3.442-16.218c1.069-7.307,5.257-11.406,15.416-11.584
			c10.158-0.178,21.386,1.693,24.416,4.634c3.03,2.94,2.049,6.861,2.049,6.861s3.297,0.535,4.366,4.812
			c1.069,4.277-6.416,19.158-6.416,19.158l-18.769,3.743L230.012,120.058z"/>
		<polygon style="fill:#1E3856;" points="251.493,437.06 223.966,437.06 217.892,260.17 258.975,258.127 		"/>
		<polygon style="fill:#2B497A;" points="240.857,268.742 249.235,291.622 282.679,437.06 308.342,437.06 284.703,279.058 
			283.754,262.487 		"/>
		<line style="fill:none;stroke:#385B8E;stroke-miterlimit:10;" x1="247.632" y1="287.245" x2="244.659" y2="437.06"/>
		<line style="fill:none;stroke:#4875AA;stroke-miterlimit:10;" x1="278.866" y1="299.613" x2="301.688" y2="437.06"/>
		<path style="fill:#FD8783;" d="M149.153,223.237l-11.039-0.18c0,0-3.719-4.024-6.548-4.775c-2.829-0.751-7.209-2.146-7.301-1.18
			c-0.091,0.966,0.091,2.039,2.646,3.219c2.555,1.18,4.563,4.184,4.563,4.184s-5.202,1.18-9.308,0.644
			c-4.107-0.537-9.993-2.173-10.472-1.288c-0.479,0.885,0.684,2.334,3.354,3.138c0,0-5.27-1.609-5.749-0.402
			c-0.479,1.207,4.175,3.299,6.571,3.943c0,0-5.133-1.529-5.476-0.483c-0.342,1.046,3.901,3.702,6.708,4.023c0,0-4.312-1.368-4.38,0
			c-0.068,1.368,6.023,4.265,10.883,5.231c4.859,0.966,9.377,0.966,12.525,0c3.148-0.966,4.449-1.368,4.449-1.368l7.94,0.08
			C148.518,238.025,153.716,228.521,149.153,223.237z"/>
		<path style="fill:#CAE0EF;" d="M161.462,251.07c-6.85,1.11-10.34,2.76-12.89-8.36c-2.7-11.76-1.93-21.69-0.86-22.76
			c0.34-0.34,3.9-0.77,8.69-1.27C156.402,218.68,156.082,238.53,161.462,251.07z"/>
		<path style="fill:#FFFFFF;" d="M218.902,162.09v56.26c0,0-1.18,1.5-2.99,3.77c-2.57,3.22-6.42,7.99-9.94,12.17
			c-3.78,4.47-7.18,8.28-8.27,8.83c-2.85,1.42-27.36,6.71-35.02,7.77c-0.42,0.06-0.83,0.12-1.22,0.18
			c-5.38-12.54-5.06-32.39-5.06-32.39c10.35-1.08,26.43-2.49,28.02-4.08c2.32-2.32,24.95-41.08,28.78-46.69
			C217.032,162.3,218.902,162.09,218.902,162.09z"/>
		<path style="fill:none;stroke:#B6CAD8;stroke-miterlimit:10;" d="M156.404,218.682c0,0-0.318,19.853,5.057,32.392"/>
		<path style="fill:#CAE0EF;" d="M217.642,175l-1.73,47.12c-2.57,3.22-6.42,7.99-9.94,12.17L217.642,175z"/>
		<path style="fill:#66ACFF;" d="M264.622,268.74c-18.77,4.18-33.98,0-33.98,0l0.7-8.57l8.39-103.24l24.8-0.51l0.08,103.79
			L264.622,268.74z"/>
		<path style="fill:#95C9FC;" d="M237.174,173.078c0,0,0.716,10.693,9.386,11.525c8.67,0.832,19.842-13.901,19.842-13.901
			l-1.871-14.283l-24.797,0.515L237.174,173.078z"/>
		<path style="fill:#95C9FC;" d="M264.622,268.74c-18.77,4.18-33.98,0-33.98,0l0.7-8.57c6.3,1.13,20.04,2.9,33.27,0.04
			L264.622,268.74z"/>
		<path style="fill:#FD8783;" d="M264.552,131.93c-1.19,2.24-2.74,4.027-3.26,6.517c0,0,0-0.03,0,0
			c-1.94,9.25,0.73,19.583,0.73,19.583l-15.49,6.63l-6.16-6.08c0.36-1.98,0.56-3.65,0.64-5.07c0.42-7.29-0.346-8.924-0.346-8.924
			l11.556-6.126L264.552,131.93z"/>
		<path style="fill:#EA7171;" d="M260.936,138.46C260.936,138.46,260.936,138.43,260.936,138.46
			c-0.31,0.93-3.844,15.26-13.534,17.15c-2.54,0.5-4.65-0.43-6.39-2.1c0.42-7.29-1.279-9.481-1.279-9.481l12.49-5.569H260.936z"/>
		<path style="fill:#FD8783;" d="M268.002,128.26c-0.46,4.14-4.21,4.46-4.21,4.46c-0.79,6.93-4.43,10.24-11.52,13.2
			c-7.09,2.97-10.16,3.72-16.07-3.39c-2.06-2.47-3.43-6.26-4.35-10.16c-1.73-7.31-1.84-15-1.84-15l0.22-6.44
			c7.36,6.13,20.66,4.88,20.66,4.88c-9.73-0.46-14.62-4.61-14.92-4.87c8.87,3.29,19.75,1.25,19.75,1.25
			c1.44,6.44,6.62,6.79,6.62,6.79l0.79,7.29C264.192,123.17,268.472,124.12,268.002,128.26z"/>
		<polygon style="fill:#C0E0F9;" points="240.91,154.454 247.399,162.087 261.256,151.329 264.53,156.419 255.174,172.365 
			246.821,165.236 238.995,171.298 238.752,158.999 		"/>
		<path style="fill:#FFFFFF;" d="M294.162,303.19c-2.73,6.14-32.12,5.81-32.12,5.81c-4.36-90.41,2.49-152.58,2.49-152.58
			c13.45,5.08,22.9,5.83,24.28,10.6c1.24,4.29-3.84,51.29-4.88,60.76c-0.11,1.07-0.18,1.66-0.18,1.66s9.67,49.73,10.7,67.76
			C294.622,300.2,294.552,302.32,294.162,303.19z"/>
		<path style="fill:#CAE0EF;" d="M345.542,254.58c-0.73,0.47-5.57,0.18-12-0.51c-1.29-20.95,4.91-30.13,4.91-30.13
			c5.57,1.02,9.88,1.92,10.62,2.43C351.412,227.97,347.912,253.05,345.542,254.58z"/>
		<path style="fill:#FFFFFF;" d="M333.542,254.07c-14.52-1.56-37.16-5.19-39-6.97c-2.66-2.56-15.49-27.69-15.67-32.5
			c-0.17-4.81,3.06-48.5,6.34-51.16c0,0,5.01,1.08,7.71,11.6c2.71,10.51,14.47,42.77,15.18,43.48c0.49,0.49,18.34,3.23,30.35,5.42
			C338.452,223.94,332.252,233.12,333.542,254.07z"/>
		<path style="fill:#FFFFFF;" d="M239.733,156.933c0,0-5.482,99.416-4.199,153.662c0,0-23.986-3.226-25.295-7.401
			c-1.31-4.175,5.396-70.232,5.396-70.232s1.581-68.144,3.271-70.874C219.927,160.439,229.867,160.439,239.733,156.933z"/>
		<path style="fill:#B6CAD8;" d="M347.472,240.28c-0.2,1.56-0.44,3.05-0.71,4.42c-0.99,4.97-2.39,8.43-3.49,8.3
			c-1.06-0.13-1.56-3.52-1.36-8.25c0.06-1.58,0.21-3.31,0.43-5.12c0.58-4.66,1.58-8.69,2.6-10.9c0.54-1.21,1.1-1.88,1.6-1.82
			c0.52,0.07,0.9,0.91,1.14,2.31C348.082,231.63,348.042,235.71,347.472,240.28z"/>
		<path style="fill:#FD8783;" d="M373.802,237.07c1.41-0.37,4.52-1.09,4.79-0.28c0.27,0.84-2.4,2.71-4.92,3.58
			c1.19-0.23,2.55-0.32,2.59,0.44c0.07,1.37-6.02,4.27-10.88,5.24c-4.86,0.96-9.38,0.96-12.53,0c-3.15-0.97-4.45-1.37-4.45-1.37
			l-1.64,0.02l-4.85,0.05c0.06-1.58,0.21-3.31,0.43-5.12c0.58-4.66,1.58-8.69,2.6-10.9l2.74,0.49l3.19,0.57c0,0,3.71-4.02,6.54-4.77
			c2.83-0.76,7.21-2.15,7.3-1.19c0.1,0.97-0.09,2.04-2.64,3.22c-2.56,1.18-4.57,4.19-4.57,4.19s5.21,1.18,9.31,0.64
			c4.11-0.53,10-2.17,10.47-1.29c0.46,0.86-0.6,2.24-3.08,3.06c1.08-0.31,5.07-1.37,5.48-0.32
			C380.122,234.43,376.302,236.26,373.802,237.07z"/>
		<path style="fill:none;stroke:#B6CAD8;stroke-miterlimit:10;" d="M338.454,223.939c0,0-6.205,9.185-4.911,30.132"/>
		<path style="fill:#CAE0EF;" d="M294.452,297.2l-21.81-59.96l11.29-56.5v47.04c-0.11,1.07-0.18,1.66-0.18,1.66
			S293.422,279.17,294.452,297.2z"/>
		<path style="fill:#FFFBFA;" d="M263.792,132.72c-0.79,6.93-4.43,10.24-11.52,13.2c-7.09,2.97-10.16,3.72-16.07-3.39
			c-2.06-2.47-3.43-6.26-4.35-10.16c0,0,7.16-4.2,10.85-4.38C246.382,127.81,256.132,132.46,263.792,132.72z"/>
		<polygon style="fill:#CAE0EF;" points="264.532,156.42 274.599,175.93 264.53,183.415 275.669,189.296 260.591,231.355 
			278.866,188.227 269.728,182.523 278.866,175.573 		"/>
		<polygon style="fill:#CAE0EF;" points="239.733,156.933 226.406,178.662 234.441,182.702 224.901,189.949 236.489,232.124 
			221.49,189.593 230.012,182.583 222.797,178.9 		"/>
		<path style="fill:#5B271D;" d="M230.045,437.06c0,0-5.175,7.617-13.103,10.234c-7.927,2.616-7.571,6.844-7.571,6.844h37.663
			l-0.89-17.078H230.045z"/>
		<path style="fill:#5B271D;" d="M287.556,437.06c0,0-2.571,7.731-6.671,10.234c-6.871,4.193-7.004,6.844-7.004,6.844h32.08
			l-2.305-17.078H287.556z"/>
	</g>
	<g>
		<g>
			<radialGradient id="SVGID_1_" cx="381.8457" cy="131.7874" r="64.9919" gradientUnits="userSpaceOnUse">
				<stop  offset="0.3864" style="stop-color:#B0EBFF;stop-opacity:0"/>
				<stop  offset="0.7854" style="stop-color:#B2EDFF;stop-opacity:0.6503"/>
				<stop  offset="0.9522" style="stop-color:#B9F3FF;stop-opacity:0.9221"/>
				<stop  offset="1" style="stop-color:#BDF6FF"/>
			</radialGradient>
			<circle style="fill:url(#SVGID_1_);" cx="381.846" cy="131.787" r="64.992"/>
			<g>
				<path style="fill:#CAE0EF;" d="M345.938,167.965c-0.834,0.664-3.382-1.149-5.691-4.049c-2.309-2.9-3.504-5.79-2.669-6.454
					c0.834-0.664,3.382,1.149,5.691,4.049C345.577,164.411,346.772,167.301,345.938,167.965z"/>
				<path style="fill:#FFFFFF;" d="M346.297,167.679c-0.636,0.506-3.022-1.435-5.331-4.335c-2.309-2.9-3.665-5.662-3.029-6.168
					c0.636-0.506,3.022,1.435,5.331,4.335C345.577,164.411,346.933,167.173,346.297,167.679z"/>
				<path style="fill:#CAE0EF;" d="M407.303,120.177l-47.755,38.012c-0.198,0.158-0.488,0.124-0.645-0.073l-8.704-10.935
					c-0.159-0.2-0.124-0.488,0.073-0.645l47.755-38.012c0.979-0.779,2.405-0.619,3.186,0.362l6.452,8.105
					c0.188,0.236,0.322,0.499,0.402,0.775C408.318,118.624,408.046,119.586,407.303,120.177z"/>
				<path style="fill:#2B497A;" d="M408.326,114.721l-4.753-5.971c-0.332-0.417-0.94-0.486-1.357-0.154l-0.755,0.601l5.955,7.482
					l0.755-0.601C408.589,115.745,408.658,115.138,408.326,114.721z"/>
				<polygon style="fill:#66ACFF;" points="411.949,109.603 409.459,106.474 404.26,109.613 407.638,113.858 				"/>
				<polygon style="fill:#FFFFFF;" points="410.232,107.445 426.38,95.473 411.119,108.56 				"/>
				<path style="fill:#FFFFFF;" d="M358.471,160.457l-10.594-13.309c-0.633-0.795-0.501-1.952,0.294-2.584l0,0
					c0.795-0.632,1.952-0.501,2.584,0.294l10.594,13.309c0.633,0.795,0.501,1.952-0.293,2.584l0,0
					C360.26,161.383,359.103,161.251,358.471,160.457z"/>
				
					<rect x="340.59" y="155.028" transform="matrix(0.7824 -0.6228 0.6228 0.7824 -22.7982 250.8736)" style="fill:#FFFFFF;" width="14.023" height="6.067"/>
				<path style="fill:#FFFFFF;" d="M370.565,149.42l-11.018,8.77c-0.198,0.158-0.488,0.124-0.645-0.073l-8.704-10.935
					c-0.159-0.2-0.124-0.488,0.073-0.645l11.018-8.77L370.565,149.42z"/>
				<path style="opacity:0.43;fill:#FFFFFF;" d="M408.067,117.766l-49.757,39.606l-6.738-8.465l49.888-39.71l6.204,7.795
					C407.853,117.227,407.986,117.49,408.067,117.766z"/>
				
					<rect x="348.923" y="152.116" transform="matrix(0.7824 -0.6228 0.6228 0.7824 -20.1896 252.516)" style="fill:#CAE0EF;" width="4.673" height="6.067"/>
				<g>
					<g>
						<line style="fill:none;stroke:#B6CAD8;stroke-miterlimit:10;" x1="367.639" y1="143.031" x2="371.887" y2="148.368"/>
						<line style="fill:none;stroke:#B6CAD8;stroke-miterlimit:10;" x1="371.562" y1="144.173" x2="373.732" y2="146.899"/>
						<line style="fill:none;stroke:#B6CAD8;stroke-miterlimit:10;" x1="373.408" y1="142.704" x2="375.577" y2="145.43"/>
						<line style="fill:none;stroke:#B6CAD8;stroke-miterlimit:10;" x1="375.253" y1="141.236" x2="377.422" y2="143.962"/>
						<line style="fill:none;stroke:#B6CAD8;stroke-miterlimit:10;" x1="377.098" y1="139.767" x2="379.268" y2="142.493"/>
					</g>
					<g>
						<line style="fill:none;stroke:#B6CAD8;stroke-miterlimit:10;" x1="376.931" y1="135.635" x2="381.179" y2="140.972"/>
						<line style="fill:none;stroke:#B6CAD8;stroke-miterlimit:10;" x1="380.854" y1="136.777" x2="383.024" y2="139.503"/>
						<line style="fill:none;stroke:#B6CAD8;stroke-miterlimit:10;" x1="382.699" y1="135.308" x2="384.869" y2="138.034"/>
						<line style="fill:none;stroke:#B6CAD8;stroke-miterlimit:10;" x1="384.544" y1="133.84" x2="386.714" y2="136.566"/>
						<line style="fill:none;stroke:#B6CAD8;stroke-miterlimit:10;" x1="386.39" y1="132.371" x2="388.559" y2="135.097"/>
					</g>
					<g>
						<line style="fill:none;stroke:#B6CAD8;stroke-miterlimit:10;" x1="386.234" y1="128.23" x2="390.482" y2="133.566"/>
						<line style="fill:none;stroke:#B6CAD8;stroke-miterlimit:10;" x1="390.157" y1="129.372" x2="392.327" y2="132.098"/>
						<line style="fill:none;stroke:#B6CAD8;stroke-miterlimit:10;" x1="392.002" y1="127.903" x2="394.172" y2="130.629"/>
						<line style="fill:none;stroke:#B6CAD8;stroke-miterlimit:10;" x1="393.848" y1="126.434" x2="396.017" y2="129.16"/>
						<line style="fill:none;stroke:#B6CAD8;stroke-miterlimit:10;" x1="395.693" y1="124.966" x2="397.863" y2="127.692"/>
					</g>
					<g>
						<line style="fill:none;stroke:#B6CAD8;stroke-miterlimit:10;" x1="395.532" y1="120.829" x2="399.779" y2="126.166"/>
						<line style="fill:none;stroke:#B6CAD8;stroke-miterlimit:10;" x1="399.455" y1="121.971" x2="401.624" y2="124.697"/>
						<line style="fill:none;stroke:#B6CAD8;stroke-miterlimit:10;" x1="401.3" y1="120.503" x2="403.47" y2="123.228"/>
						<line style="fill:none;stroke:#B6CAD8;stroke-miterlimit:10;" x1="403.145" y1="119.034" x2="405.315" y2="121.76"/>
						<line style="fill:none;stroke:#B6CAD8;stroke-miterlimit:10;" x1="404.99" y1="117.565" x2="407.16" y2="120.291"/>
					</g>
				</g>
				<path style="fill:#FFFFFF;" d="M374.716,130.444l-0.083-0.104c-0.298-0.375-0.236-0.92,0.138-1.218l22.775-18.128
					c0.375-0.298,0.92-0.236,1.218,0.138l0.083,0.104c0.298,0.375,0.236,0.92-0.138,1.218l-22.775,18.128
					C375.56,130.881,375.015,130.819,374.716,130.444z"/>
				<path style="fill:#FFFFFF;" d="M366.708,136.734L366.708,136.734c-0.321-0.403-0.254-0.991,0.149-1.312l3.421-2.723
					c0.403-0.321,0.991-0.254,1.312,0.149l0,0c0.321,0.403,0.254,0.991-0.149,1.312l-3.421,2.723
					C367.616,137.204,367.029,137.137,366.708,136.734z"/>
				<polygon style="fill:#CAE0EF;" points="351.385,145.649 360.661,157.303 353.846,143.691 				"/>
			</g>
		</g>
		<g>
			
				<radialGradient id="SVGID_00000129200557580563156080000005578456213050514568_" cx="116.6576" cy="112.3366" r="64.9919" gradientUnits="userSpaceOnUse">
				<stop  offset="0.3864" style="stop-color:#B0EBFF;stop-opacity:0"/>
				<stop  offset="0.7854" style="stop-color:#B2EDFF;stop-opacity:0.6503"/>
				<stop  offset="0.9522" style="stop-color:#B9F3FF;stop-opacity:0.9221"/>
				<stop  offset="1" style="stop-color:#BDF6FF"/>
			</radialGradient>
			<circle style="fill:url(#SVGID_00000129200557580563156080000005578456213050514568_);" cx="116.658" cy="112.337" r="64.992"/>
			<g>
				<path style="fill:#2B497A;" d="M151.863,99.466l-38.407-23.507c-0.867-0.531-1.14-1.665-0.609-2.532l3.039-4.965
					c0.531-0.868,1.665-1.14,2.532-0.609l38.407,23.507c0.867,0.531,1.14,1.665,0.609,2.532l-3.039,4.965
					C153.865,99.725,152.731,99.997,151.863,99.466z"/>
				
					<rect x="111.397" y="87.145" transform="matrix(0.8529 0.522 -0.522 0.8529 66.7241 -54.8165)" style="fill:#CAE0EF;" width="38.495" height="7.723"/>
				<path style="fill:#CAE0EF;" d="M113.934,159.274l-36.481-22.329c-2.728-1.67-3.586-5.236-1.917-7.964l26.849-43.865
					c2.462-4.023,7.72-5.288,11.743-2.826l31.793,19.459c4.023,2.462,5.288,7.72,2.826,11.743l-26.849,43.865
					C120.228,160.086,116.662,160.944,113.934,159.274z"/>
				<path style="fill:#528FE8;" d="M140.364,121.438c0,0-0.674-6.081-9.6-11.679c-11.727-7.355-11.428-0.087-29.054-17.783
					C101.709,91.975,109.518,121.817,140.364,121.438z"/>
				<path style="fill:#66ACFF;" d="M140.364,121.438l-21.028,34.356c-0.804,1.313-2.523,1.727-3.836,0.923L79.02,134.388
					c-1.313-0.804-1.727-2.523-0.923-3.836l23.612-38.578C117.691,101.757,120.566,116.006,140.364,121.438z"/>
				<path style="fill:#FFFFFF;" d="M90.196,119.253L90.196,119.253c-0.867-0.531-1.14-1.665-0.609-2.532l16.871-27.564
					c0.531-0.868,1.665-1.14,2.532-0.609l0,0c0.868,0.531,1.14,1.665,0.609,2.532l-16.871,27.564
					C92.198,119.511,91.064,119.784,90.196,119.253z"/>
				<path style="fill:#FFFFFF;" d="M83.963,129.438L83.963,129.438c-0.868-0.531-1.14-1.665-0.609-2.532l2.357-3.851
					c0.531-0.868,1.665-1.14,2.532-0.609l0,0c0.867,0.531,1.14,1.665,0.609,2.532l-2.357,3.851
					C85.964,129.696,84.83,129.969,83.963,129.438z"/>
				<g>
					<path style="fill:#FFFFFF;" d="M118.76,127.264l-14.998-9.18c-1.203-0.736-1.582-2.309-0.845-3.512l0,0
						c0.736-1.203,2.309-1.582,3.512-0.845l14.998,9.18c1.203,0.736,1.582,2.309,0.845,3.512l0,0
						C121.536,127.622,119.964,128,118.76,127.264z"/>
					<path style="fill:#FFFFFF;" d="M105.826,126.661l9.18-14.998c0.736-1.203,2.309-1.582,3.512-0.845l0,0
						c1.203,0.737,1.582,2.309,0.845,3.512l-9.18,14.998c-0.736,1.203-2.309,1.582-3.512,0.845l0,0
						C105.468,129.436,105.09,127.864,105.826,126.661z"/>
				</g>
				<polygon style="fill:#A1B5C6;" points="113.607,81.971 149.077,97.761 116.243,77.665 				"/>
			</g>
		</g>
	</g>
</g>
</svg>
